<svg width="102" height="108" viewBox="0 0 102 108" fill="none" xmlns="http://www.w3.org/2000/svg">
<line x1="8.4021" y1="24.6199" x2="87.166" y2="30.7226" stroke="black" stroke-width="3" stroke-linecap="round"/>
<line x1="7.69432" y1="24.2408" x2="13.4427" y2="71.8855" stroke="black" stroke-width="3" stroke-linecap="round"/>
<line x1="79.47" y1="78.2701" x2="13.6672" y2="73.1717" stroke="black" stroke-width="3" stroke-linecap="round"/>
<line x1="77.3915" y1="92.1511" x2="24.5499" y2="88.0569" stroke="black" stroke-width="3" stroke-linecap="round"/>
<line x1="77.579" y1="91.0658" x2="79.3046" y2="79.1569" stroke="black" stroke-width="3" stroke-linecap="round"/>
<line x1="87.9114" y1="31.9311" x2="79.7588" y2="76.4505" stroke="black" stroke-width="3" stroke-linecap="round"/>
<circle cx="25.3924" cy="90.1282" r="12.5" transform="rotate(4.43045 25.3924 90.1282)" fill="black"/>
<ellipse cx="25.302" cy="90.3131" rx="9.78531" ry="10.1464" transform="rotate(4.43045 25.302 90.3131)" fill="white"/>
<ellipse cx="75.8188" cy="93.0322" rx="10" ry="10.5" transform="rotate(4.43045 75.8188 93.0322)" fill="black"/>
<ellipse cx="75.8069" cy="93.109" rx="7.43991" ry="8.11739" transform="rotate(4.43045 75.8069 93.109)" fill="white"/>
<circle cx="79.47" cy="78.2702" r="2.5" transform="rotate(4.43045 79.47 78.2702)" fill="black"/>
<circle cx="88.1631" cy="30.7998" r="2.5" transform="rotate(4.43045 88.1631 30.7998)" fill="black"/>
<circle cx="25.3924" cy="90.1281" r="2.5" transform="rotate(4.43045 25.3924 90.1281)" fill="black"/>
<circle cx="76.3173" cy="93.0708" r="2.5" transform="rotate(4.43045 76.3173 93.0708)" fill="black"/>
<line x1="80.2983" y1="29.3241" x2="88.1344" y2="5.85927" stroke="black" stroke-width="3"/>
<line x1="86.6267" y1="6.61218" x2="101.505" y2="8.76793" stroke="black" stroke-width="3"/>
</svg>
