<svg width="189" height="200" viewBox="0 0 189 200" fill="none" xmlns="http://www.w3.org/2000/svg">
<rect x="3.5" y="50.5" width="157" height="149" fill="#FFF94A" stroke="black"/>
<path d="M11.8252 61.25L152.175 61.25L82 190.95L11.8252 61.25Z" fill="#7930C8" stroke="black"/>
<path d="M22.9619 32L140.038 32L81.5 157.815L22.9619 32Z" fill="#A1A8FF" stroke="black"/>
<path d="M43.256 58L38.84 40.48H41.96L44.6 51.904C44.744 52.464 44.88 53.064 45.008 53.704C45.136 54.344 45.232 54.864 45.296 55.264C45.36 54.864 45.448 54.344 45.56 53.704C45.672 53.064 45.792 52.456 45.92 51.88L48.536 40.48H51.56L47.144 58H43.256ZM54.2146 58V40.48H59.7586C60.9266 40.48 61.9346 40.696 62.7826 41.128C63.6466 41.56 64.3186 42.168 64.7986 42.952C65.2786 43.72 65.5186 44.632 65.5186 45.688C65.5186 46.84 65.2226 47.856 64.6306 48.736C64.0546 49.616 63.2706 50.24 62.2786 50.608L65.7586 58H62.3986L59.3506 51.04H57.2146V58H54.2146ZM57.2146 48.4H59.7586C60.6066 48.4 61.2706 48.168 61.7506 47.704C62.2306 47.24 62.4706 46.6 62.4706 45.784C62.4706 44.952 62.2306 44.304 61.7506 43.84C61.2706 43.36 60.6066 43.12 59.7586 43.12H57.2146V48.4ZM68.9413 58V55.36H72.4693V43.12H68.9413V40.48H79.0213V43.12H75.4933V55.36H79.0213V58H68.9413ZM82.8999 58V40.48H86.5719L91.4439 54.64C91.3959 54.128 91.3399 53.528 91.2759 52.84C91.2279 52.136 91.1879 51.424 91.1559 50.704C91.1239 49.968 91.1079 49.328 91.1079 48.784V40.48H93.8439V58H90.1719L85.3479 43.84C85.3799 44.304 85.4199 44.864 85.4679 45.52C85.5159 46.176 85.5559 46.848 85.5879 47.536C85.6199 48.224 85.6359 48.856 85.6359 49.432V58H82.8999ZM97.6745 58V40.48H108.187V43.096H100.627V47.656H107.347V50.248H100.627V55.384H108.187V58H97.6745ZM110.625 58L115.473 49.024L110.913 40.48H114.273L116.481 44.872C116.641 45.192 116.785 45.504 116.913 45.808C117.041 46.096 117.137 46.32 117.201 46.48C117.249 46.32 117.337 46.096 117.465 45.808C117.593 45.504 117.737 45.192 117.897 44.872L120.129 40.48H123.393L118.833 48.952L123.681 58H120.321L117.849 53.152C117.689 52.832 117.537 52.52 117.393 52.216C117.265 51.912 117.169 51.672 117.105 51.496C117.041 51.672 116.945 51.912 116.817 52.216C116.689 52.52 116.545 52.832 116.385 53.152L113.889 58H110.625Z" fill="black"/>
</svg>
